<?xml version="1.0" standalone="no"?>
<!DOCTYPE svg PUBLIC "-//W3C//DTD SVG 20010904//EN"
 "http://www.w3.org/TR/2001/REC-SVG-20010904/DTD/svg10.dtd">
<svg version="1.0" xmlns="http://www.w3.org/2000/svg"
 width="500.000000pt" height="500.000000pt" viewBox="0 0 500.000000 500.000000"
 preserveAspectRatio="xMidYMid meet">
<metadata>
Created by potrace 1.14, written by Peter Selinger 2001-2017
</metadata>
<g transform="translate(0.000000,500.000000) scale(0.100000,-0.100000)"
fill="#000000" stroke="none">
<path d="M0 2500 l0 -2500 2500 0 2500 0 0 2500 0 2500 -2500 0 -2500 0 0
-2500z m4320 0 l0 -2000 -1820 0 -1820 0 0 2000 0 2000 1820 0 1820 0 0 -2000z"/>
<path d="M830 3965 l0 -385 1670 0 1670 0 0 385 0 385 -1670 0 -1670 0 0 -385z"/>
<path d="M830 2035 l0 -1385 1665 0 1665 0 0 1385 0 1385 -1665 0 -1665 0 0
-1385z m630 1065 l0 -180 -225 0 -225 0 0 180 0 180 225 0 225 0 0 -180z m640
0 l0 -180 -230 0 -230 0 0 180 0 180 230 0 230 0 0 -180z m630 0 l0 -180 -230
0 -230 0 0 180 0 180 230 0 230 0 0 -180z m630 0 l0 -180 -230 0 -230 0 0 180
0 180 230 0 230 0 0 -180z m630 0 l0 -180 -225 0 -225 0 0 180 0 180 225 0
225 0 0 -180z m-2530 -520 l0 -180 -225 0 -225 0 0 180 0 180 225 0 225 0 0
-180z m640 0 l0 -180 -230 0 -230 0 0 180 0 180 230 0 230 0 0 -180z m630 0
l0 -180 -230 0 -230 0 0 180 0 180 230 0 230 0 0 -180z m630 0 l0 -180 -230 0
-230 0 0 180 0 180 230 0 230 0 0 -180z m630 0 l0 -180 -225 0 -225 0 0 180 0
180 225 0 225 0 0 -180z m-2530 -520 l0 -180 -225 0 -225 0 0 180 0 180 225 0
225 0 0 -180z m640 0 l0 -180 -230 0 -230 0 0 180 0 180 230 0 230 0 0 -180z
m630 0 l0 -180 -230 0 -230 0 0 180 0 180 230 0 230 0 0 -180z m630 0 l0 -180
-230 0 -230 0 0 180 0 180 230 0 230 0 0 -180z m630 0 l0 -180 -225 0 -225 0
0 180 0 180 225 0 225 0 0 -180z m-2530 -520 l0 -180 -225 0 -225 0 0 180 0
180 225 0 225 0 0 -180z m640 0 l0 -180 -230 0 -230 0 0 180 0 180 230 0 230
0 0 -180z m630 0 l0 -180 -230 0 -230 0 0 180 0 180 230 0 230 0 0 -180z m630
0 l0 -180 -230 0 -230 0 0 180 0 180 230 0 230 0 0 -180z m630 0 l0 -180 -225
0 -225 0 0 180 0 180 225 0 225 0 0 -180z m-1890 -520 l0 -180 -545 0 -545 0
0 180 0 180 545 0 545 0 0 -180z m630 0 l0 -180 -230 0 -230 0 0 180 0 180
230 0 230 0 0 -180z m1260 0 l0 -180 -545 0 -545 0 0 180 0 180 545 0 545 0 0
-180z"/>
<path d="M1070 3100 l0 -120 165 0 165 0 0 120 0 120 -165 0 -165 0 0 -120z"/>
<path d="M1700 3100 l0 -120 165 0 165 0 0 120 0 120 -165 0 -165 0 0 -120z"/>
<path d="M2330 3100 l0 -120 170 0 170 0 0 120 0 120 -170 0 -170 0 0 -120z"/>
<path d="M2970 3100 l0 -120 165 0 165 0 0 120 0 120 -165 0 -165 0 0 -120z"/>
<path d="M3600 3100 l0 -120 165 0 165 0 0 120 0 120 -165 0 -165 0 0 -120z"/>
<path d="M1070 2580 l0 -120 165 0 165 0 0 120 0 120 -165 0 -165 0 0 -120z"/>
<path d="M1700 2580 l0 -120 165 0 165 0 0 120 0 120 -165 0 -165 0 0 -120z"/>
<path d="M2330 2580 l0 -120 170 0 170 0 0 120 0 120 -170 0 -170 0 0 -120z"/>
<path d="M2970 2580 l0 -120 165 0 165 0 0 120 0 120 -165 0 -165 0 0 -120z"/>
<path d="M3600 2580 l0 -120 165 0 165 0 0 120 0 120 -165 0 -165 0 0 -120z"/>
<path d="M1070 2060 l0 -120 165 0 165 0 0 120 0 120 -165 0 -165 0 0 -120z"/>
<path d="M1700 2060 l0 -120 165 0 165 0 0 120 0 120 -165 0 -165 0 0 -120z"/>
<path d="M2330 2060 l0 -120 170 0 170 0 0 120 0 120 -170 0 -170 0 0 -120z"/>
<path d="M2970 2060 l0 -120 165 0 165 0 0 120 0 120 -165 0 -165 0 0 -120z"/>
<path d="M3600 2060 l0 -120 165 0 165 0 0 120 0 120 -165 0 -165 0 0 -120z"/>
<path d="M1070 1540 l0 -120 165 0 165 0 0 120 0 120 -165 0 -165 0 0 -120z"/>
<path d="M1700 1540 l0 -120 165 0 165 0 0 120 0 120 -165 0 -165 0 0 -120z"/>
<path d="M2330 1540 l0 -120 170 0 170 0 0 120 0 120 -170 0 -170 0 0 -120z"/>
<path d="M2970 1540 l0 -120 165 0 165 0 0 120 0 120 -165 0 -165 0 0 -120z"/>
<path d="M3600 1540 l0 -120 165 0 165 0 0 120 0 120 -165 0 -165 0 0 -120z"/>
<path d="M1070 1020 l0 -120 480 0 480 0 0 120 0 120 -480 0 -480 0 0 -120z"/>
<path d="M2330 1020 l0 -120 170 0 170 0 0 120 0 120 -170 0 -170 0 0 -120z"/>
<path d="M2970 1020 l0 -120 480 0 480 0 0 120 0 120 -480 0 -480 0 0 -120z"/>
</g>
</svg>
